<svg width="12" height="12" viewBox="0 0 12 12" fill="none" xmlns="http://www.w3.org/2000/svg">
<g clip-path="url(#clip0_2001_1423)">
<path d="M5.5 2H3.4C2.55992 2 2.13988 2 1.81901 2.16349C1.53677 2.3073 1.3073 2.53677 1.16349 2.81901C1 3.13988 1 3.55992 1 4.4V8.6C1 9.44008 1 9.86012 1.16349 10.181C1.3073 10.4632 1.53677 10.6927 1.81901 10.8365C2.13988 11 2.55992 11 3.4 11H7.6C8.44008 11 8.86012 11 9.18098 10.8365C9.46323 10.6927 9.6927 10.4632 9.83651 10.181C10 9.86012 10 9.44008 10 8.6V6.5" stroke="#AFAFAF" stroke-linecap="round" stroke-linejoin="round"/>
<path d="M4 8.00011H4.83727C5.08186 8.00011 5.20416 8.00011 5.31925 7.97248C5.42128 7.94799 5.51883 7.90758 5.6083 7.85275C5.70921 7.79091 5.79569 7.70444 5.96864 7.53149L5.96864 7.53148L10.75 2.75011C11.1642 2.3359 11.1642 1.66433 10.75 1.25011C10.3358 0.8359 9.66423 0.8359 9.25001 1.25011L4.46863 6.03148C4.29568 6.20444 4.2092 6.29091 4.14736 6.39183C4.09253 6.4813 4.05213 6.57885 4.02763 6.68088C4 6.79597 4 6.91826 4 7.16286V8.00011Z" stroke="#AFAFAF" stroke-linecap="round" stroke-linejoin="round"/>
</g>
<defs>
<clipPath id="clip0_2001_1423">
<rect width="12" height="12" fill="white"/>
</clipPath>
</defs>
</svg>
