<svg width="189" height="40" viewBox="0 0 189 40" fill="none" xmlns="http://www.w3.org/2000/svg">
<path d="M56.3746 24.413V25.7176C56.3746 28.7577 55.7737 32.6384 49.853 32.6384C45.4799 32.6384 43.5801 30.4648 43.5801 26.0359V14.2204C43.5801 10.0304 45.8201 7.82275 49.9575 7.82275C55.4133 7.82275 56.2993 11.173 56.2993 14.3257V15.8385H51.2953V13.7823C51.2953 12.4558 50.9925 11.7845 49.9551 11.7845C48.9323 11.7845 48.6018 12.4177 48.6018 13.7823V26.5242C48.6018 27.8094 48.8318 28.6881 49.9535 28.6881C51.0265 28.6881 51.3456 27.9503 51.3456 26.4165V24.4138L56.3746 24.413Z" fill="#DC841F"/>
<path d="M58.5391 8.18359H63.5131V17.457H66.7524V8.18359H71.7539V32.2777H66.7524V21.5442H63.5131V32.2777H58.5391V8.18359Z" fill="#DC841F"/>
<path d="M79.8074 8.18359V32.2777H74.8472V8.18359H79.8074Z" fill="#DC841F"/>
<path d="M82.9229 32.2777V8.18359H88.4192C89.2387 11.1241 91.827 22.0366 92.0326 23.0942H92.1525C91.8772 19.8889 91.7006 15.5053 91.7006 12.1421V8.18359H96.3167V32.2777H90.7693C90.234 29.9851 87.4101 17.5185 87.2441 16.7476H87.1105C87.304 19.582 87.4555 24.3754 87.4555 28.1662V32.281L82.9229 32.2777Z" fill="#DC841F"/>
<path d="M103.873 26.5433L103.237 32.2777H98.1724L101.824 8.18359H109.231L112.97 32.2777H107.803L107.091 26.5433H103.873ZM106.67 22.4569C106.302 19.3738 105.788 14.6825 105.546 12.3769H105.351C105.262 14.0565 104.649 19.4775 104.306 22.4569H106.67Z" fill="#DC841F"/>
<path d="M119.234 24.849V26.5173C119.234 28.1029 119.655 28.8383 120.788 28.8383C121.933 28.8383 122.202 27.7474 122.202 26.6104C122.202 24.3364 121.743 23.678 119.106 21.6194C116.197 19.3203 114.701 17.959 114.701 14.4119C114.701 10.9701 115.922 7.79883 120.815 7.79883C126.01 7.79883 126.777 11.1046 126.777 13.862V15.2485H122.087V13.8054C122.087 12.3436 121.829 11.6188 120.847 11.6188C119.93 11.6188 119.632 12.3549 119.632 13.7187C119.632 15.1699 119.915 15.8866 122.051 17.4439C125.849 20.2281 127.213 21.7919 127.213 25.7593C127.213 29.5323 125.831 32.6428 120.7 32.6428C115.773 32.6428 114.367 29.8708 114.367 26.2994V24.849H119.234Z" fill="#333333"/>
<path d="M131.873 12.2814H128.112V8.18359H140.619V12.2814H136.829V32.2777H131.873V12.2814Z" fill="#333333"/>
<path d="M155.305 14.6295V25.8052C155.305 30.5832 152.893 32.6361 148.378 32.6361C144.093 32.6361 141.891 30.5354 141.891 25.8521V14.5048C141.891 9.85308 144.631 7.82202 148.612 7.82202C152.611 7.82202 155.305 9.81907 155.305 14.6295ZM146.915 14.1079V26.423C146.915 27.9115 147.461 28.6906 148.572 28.6906C149.73 28.6906 150.255 27.9868 150.255 26.4028V14.0715C150.255 12.5668 149.808 11.7967 148.558 11.7967C147.503 11.7967 146.915 12.5093 146.915 14.1079Z" fill="#333333"/>
<path d="M162.933 21.8033V32.2777H157.973V8.18359H164.417C168.746 8.18359 170.885 9.95794 170.885 14.1707V15.0372C170.885 18.4709 169.416 19.4913 168.308 19.9772C169.914 20.7012 170.669 21.8033 170.669 25.165C170.669 27.4916 170.63 31.0087 170.847 32.2753H166.041C165.717 31.1861 165.743 28.0496 165.743 24.9738C165.743 22.2633 165.41 21.8009 163.519 21.8009L162.933 21.8033ZM162.947 18.1518H163.562C165.221 18.1518 165.898 17.6659 165.898 15.4202V14.2565C165.898 12.6369 165.549 11.8351 163.722 11.8351H162.947V18.1518Z" fill="#333333"/>
<path d="M183.845 21.6357H178.52V28.2034H184.762L184.166 32.2777H173.546V8.18359H184.127V12.2814H178.52V17.5606H183.845V21.6357Z" fill="#333333"/>
<path d="M33.7912 28.4268C33.7907 29.7074 33.4657 30.9669 32.8465 32.0878C32.2272 33.2087 31.3339 34.1543 30.2501 34.8363C29.1662 35.5183 27.9272 35.9144 26.6488 35.9877C25.3703 36.061 24.0941 35.809 22.9395 35.2553C24.6242 33.3678 25.5578 30.9277 25.5633 28.3977V28.358C25.5633 28.1029 25.5544 27.8494 25.5366 27.5992C25.3785 25.414 24.5306 23.3354 23.1152 21.6631C23.0852 21.6275 23.0553 21.5918 23.0245 21.557C23.703 21.2409 24.425 21.028 25.1665 20.9253C26.6895 20.7111 28.2416 20.966 29.616 21.6561C30.9905 22.3463 32.122 23.4388 32.8599 24.7882C33.3175 25.6211 33.6132 26.5331 33.7313 27.4761C33.7709 27.7914 33.7909 28.109 33.7912 28.4268Z" fill="#333333"/>
<path d="M22.761 28.358V28.3977C22.7152 30.3789 21.8946 32.2632 20.4754 33.6464C19.0562 35.0295 17.1514 35.8012 15.1697 35.7961C13.188 35.7909 11.2872 35.0091 9.87527 33.6186C8.46332 32.228 7.65265 30.3395 7.61719 28.358C7.6174 28.0769 7.63281 27.7961 7.66335 27.5166C9.99008 28.5279 12.6059 28.6552 15.0199 27.8746C15.2936 27.7855 15.5635 27.6856 15.8297 27.5749C17.2078 26.9951 18.4447 26.125 19.4561 25.024C19.906 24.5351 20.3079 24.0041 20.6563 23.4383C20.6968 23.3727 20.7373 23.3071 20.7753 23.2407C22.0586 24.636 22.7695 26.4632 22.7667 28.3589L22.761 28.358Z" fill="#333333"/>
<path d="M27.2531 7.86916C24.7776 8.41759 22.5884 9.85299 21.0984 11.9046C20.9413 12.1205 20.7929 12.3421 20.653 12.5694C19.9173 13.7596 19.4318 15.0872 19.2261 16.4712C19.1512 16.9782 19.1136 17.4901 19.1135 18.0026C19.1135 18.2585 19.1232 18.5112 19.1411 18.7622C19.1475 18.8432 19.154 18.9242 19.1621 19.0052C18.3306 18.8396 17.5331 18.5349 16.8031 18.1038C15.9093 17.5751 15.133 16.8693 14.5218 16.0298C13.9147 15.1952 13.4846 14.2454 13.2578 13.2385C13.0311 12.2317 13.0125 11.1891 13.2032 10.1749C13.3939 9.16057 13.7898 8.19596 14.3667 7.34022C14.9437 6.48449 15.6894 5.75569 16.5581 5.19854C17.4269 4.64139 18.4003 4.26765 19.4187 4.10027C20.4371 3.9329 21.4789 3.97541 22.4803 4.22519C23.4817 4.47497 24.4214 4.92677 25.2419 5.55283C26.0624 6.1789 26.7462 6.96603 27.2515 7.86592L27.2531 7.86916Z" fill="#DC841F"/>
<path d="M37.0655 18.0026C37.0677 19.891 36.3614 21.7116 35.0863 23.1045C33.7889 20.9246 31.7394 19.2942 29.3236 18.5201C29.0701 18.4391 28.8126 18.367 28.5502 18.3063C27.1724 17.983 25.7433 17.9431 24.3496 18.1889C23.5954 18.3226 22.8585 18.5399 22.1525 18.8367C22.0926 18.8618 22.0318 18.8877 21.9727 18.9177C21.8753 18.1032 21.9092 17.2783 22.0731 16.4744C22.3795 14.9928 23.1224 13.6367 24.2062 12.5809C25.2899 11.5252 26.665 10.818 28.1542 10.5505C29.0894 10.3849 30.0472 10.3946 30.9789 10.5789C32.6948 10.9227 34.2387 11.8501 35.3483 13.2035C36.4579 14.5568 37.0647 16.2525 37.0655 18.0026Z" fill="#DC841F"/>
<path d="M18.416 21.7148C18.0451 22.3745 17.5775 22.9751 17.0287 23.4964C16.1774 24.305 15.1497 24.9045 14.0268 25.2478C12.904 25.591 11.7167 25.6685 10.5588 25.4741C9.40083 25.2798 8.30393 24.8189 7.35469 24.1278C6.40544 23.4368 5.62986 22.5345 5.08917 21.4923C4.54848 20.45 4.2575 19.2963 4.2392 18.1223C4.2209 16.9483 4.47579 15.7862 4.98373 14.7276C5.49167 13.669 6.23876 12.743 7.166 12.0227C8.09325 11.3024 9.17525 10.8075 10.3266 10.5771C10.2942 10.9076 10.278 11.2436 10.278 11.583C10.2749 13.7748 10.9686 15.9108 12.2588 17.6826C12.4078 17.8867 12.5636 18.0851 12.7261 18.2778C13.6143 19.328 14.7015 20.1922 15.9249 20.8207C16.6684 21.2018 17.4554 21.4911 18.2686 21.6824L18.416 21.7148Z" fill="#DC841F"/>
</svg>
